:SAMPLES-PER-SECOND 30
:FULLY-SPECIFIED
:DEGREES
781
root  -30.4138 38.9976 3.43337 175.809 -84.3999 -179.497
RightUpLeg  -17.2566 -8.11698 0.673874
RightLeg  11.8796 -0.41726 2.89891
RightFoot  7.19351 0.393306 -2.12792
RightToes  -9.31324e-010 0 -3.6325e-017
Spine  7.54036 -2.42955 1.06689
Spine1  3.32375 -3.19147 4.98887
HEad  -13.3384 -15.1183 1.03463
LeftShoulder1  -0.414546 4.61126 -31.2544
LeftArm  7.94102 4.7604 -41.3983
LeftForeArm  26.7004 -28.558 -4.72008
LeftHand  -0.0457949 5.72062 -3.86008
RightShoulder  -0.875714 -5.93968 29.3529
RightArm  16.5117 -14.1374 38.488
RightForeArm  13.8174 8.67672 7.13617
RightHand  -0.0388181 3.98515 -0.746381
LeftUpLeg  8.4978 3.06289 -0.54901
LeftLeg  30.3386 -7.09309 -4.13861
LeftFoot  -13.2912 0.000387588 -5.74639
LeftToes  8.61288e-010 -5.99147e-011 2.1039e-011
782
root  -28.9603 38.8064 3.59459 -176.748 -85.173 172.72
RightUpLeg  -17.3066 -7.67848 -0.471457
RightLeg  8.24453 -1.80832 3.04025
RightFoot  8.48711 -0.110412 0.942166
RightToes  -9.31324e-010 0 -3.6325e-017
Spine  8.56572 -2.17054 -0.272526
Spine1  3.30636 -2.94153 4.10473
HEad  -13.2784 -14.6525 1.88744
LeftShoulder1  -0.325204 4.38805 -30.6509
LeftArm  6.55055 3.50748 -41.3128
LeftForeArm  26.8703 -29.9702 -5.03408
LeftHand  -0.0509072 5.92132 -3.078
RightShoulder  -0.912119 -6.02959 29.5283
RightArm  15.6826 -14.8252 39.5317
RightForeArm  16.0676 8.36188 6.92867
RightHand  0.0102581 3.86527 -0.136814
LeftUpLeg  8.73879 2.09337 -2.12355
LeftLeg  26.7981 -5.77946 -2.83358
LeftFoot  -17.7554 0.0279196 -1.24227
LeftToes  8.61288e-010 -5.99147e-011 2.1039e-011
783
root  -27.4347 38.6019 3.74028 -159.432 -85.1752 154.825
RightUpLeg  -17.116 -8.16736 -2.31212
RightLeg  4.71033 -2.30836 3.12536
RightFoot  7.61557 -1.12597 7.12532
RightToes  -9.31324e-010 0 -3.6325e-017
Spine  10.388 -1.66589 -3.08917
Spine1  2.84263 -2.64687 3.72102
HEad  -14.8011 -12.2426 2.18079
LeftShoulder1  -0.386492 4.55238 -30.6825
LeftArm  4.97359 2.3645 -40.6847
LeftForeArm  26.8525 -31.4431 -5.38379
LeftHand  -0.0293722 5.31517 -1.80997
RightShoulder  -0.875898 -5.93111 29.4743
RightArm  15.3912 -14.738 40.5892
RightForeArm  16.6379 8.14503 6.96324
RightHand  -0.0196957 3.90865 -0.514227
LeftUpLeg  7.52908 2.06899 -4.32219
LeftLeg  25.7503 -3.56881 -1.52723
LeftFoot  -19.8691 0.246302 1.73934
LeftToes  8.61288e-010 -5.99147e-011 2.1039e-011
784
root  -25.9417 38.3254 3.85357 -140.93 -84.2943 135.624
RightUpLeg  -16.7788 -9.35306 -4.7492
RightLeg  1.66994 -1.35855 3.28362
RightFoot  3.71875 -2.25812 17.5753
RightToes  -9.31324e-010 0 -3.6325e-017
Spine  11.6154 -1.03007 -6.13797
Spine1  3.02111 -2.08112 2.77109
HEad  -19.3198 -8.80385 0.90017
LeftShoulder1  -0.262089 4.22552 -30.2076
LeftArm  3.66458 1.7492 -40.1891
LeftForeArm  26.2182 -32.6726 -5.71748
LeftHand  -0.0293271 5.51528 0.054887
RightShoulder  -0.950422 -6.09301 30.1284
RightArm  15.656 -13.5515 40.9282
RightForeArm  17.3152 8.22469 7.07647
RightHand  -0.00430654 4.10731 -0.335798
LeftUpLeg  5.4299 2.90762 -6.33585
LeftLeg  26.6487 -3.4087 -1.51757
LeftFoot  -21.1718 0.48741 4.18518
LeftToes  8.61288e-010 -5.99147e-011 2.1039e-011
785
root  -24.5885 38.1052 3.98721 -130.818 -83.9461 125.185
RightUpLeg  -16.2212 -10.2376 -6.57042
RightLeg  -1.22774 0.394229 3.27083
RightFoot  -0.485732 -2.623 26.7195
RightToes  -9.31324e-010 0 -3.6325e-017
Spine  12.4248 -0.849607 -7.37053
Spine1  2.46138 -1.7075 1.47114
HEad  -17.9037 -6.40146 0.497519
LeftShoulder1  -0.334823 4.41264 -30.6541
LeftArm  3.74672 1.36217 -38.9506
LeftForeArm  24.7192 -32.6751 -5.80458
LeftHand  -0.0262042 5.48233 1.95224
RightShoulder  -0.851986 -5.87256 29.3669
RightArm  14.8258 -13.5406 42.2308
RightForeArm  18.0472 8.48775 6.86077
RightHand  -0.0704469 3.43658 -1.16661
LeftUpLeg  2.85999 3.31658 -7.4036
LeftLeg  28.1192 -3.72462 -1.79948
LeftFoot  -21.9953 0.658862 5.66482
LeftToes  8.61288e-010 -5.99147e-011 2.1039e-011
786
root  -23.2271 38.2339 4.17606 -130.835 -84.3866 125.518
RightUpLeg  -17.6527 -10.0479 -6.75662
RightLeg  0.61503 2.85327 2.38771
RightFoot  -0.214857 -2.20558 22.3515
RightToes  -9.31324e-010 0 -3.6325e-017
Spine  12.5992 -0.789962 -5.87721
Spine1  2.36156 -1.21994 0.00833292
HEad  -16.2066 -4.86995 -1.41511
LeftShoulder1  -0.441274 4.67403 -31.5901
LeftArm  3.67833 1.71913 -37.5379
LeftForeArm  23.7438 -32.3595 -5.784
LeftHand  -0.0407099 4.44808 2.36873
RightShoulder  -0.84494 -5.86175 29.2178
RightArm  14.6758 -12.9512 42.3874
RightForeArm  17.8726 8.80283 6.7807
RightHand  -0.0398005 3.67073 -0.772829
LeftUpLeg  0.327223 2.82313 -7.60832
LeftLeg  27.6317 -2.54573 -1.09328
LeftFoot  -20.6582 0.681833 6.84776
LeftToes  8.61288e-010 -5.99147e-011 2.1039e-011
787
root  -21.9697 38.4338 4.34492 -135.63 -84.73 129.916
RightUpLeg  -18.6867 -10.6987 -6.56909
RightLeg  6.74846 3.25939 1.72367
RightFoot  -0.764009 -1.76301 18.83
RightToes  -9.31324e-010 0 -3.6325e-017
Spine  12.8634 -0.520041 -3.65615
Spine1  2.75098 -0.338176 -2.19051
HEad  -14.5838 -3.25103 -3.49304
LeftShoulder1  -0.429296 4.63819 -31.7036
LeftArm  3.0038 2.71633 -37.396
LeftForeArm  23.27 -30.6969 -5.4048
LeftHand  -0.0390263 4.7079 2.77626
RightShoulder  -0.933477 -6.06053 29.9382
RightArm  15.1095 -11.0376 41.6937
RightForeArm  17.7748 8.34748 6.99284
RightHand  0.0278211 4.02618 0.072686
LeftUpLeg  -1.11791 2.0768 -7.53893
LeftLeg  26.852 -1.47092 -0.456102
LeftFoot  -18.476 0.586577 7.58757
LeftToes  8.61288e-010 -5.99147e-011 2.1039e-011
788
root  -20.8295 38.6911 4.45428 -144.104 -84.9566 137.974
RightUpLeg  -18.6222 -11.5562 -6.21042
RightLeg  13.5347 3.14804 0.969484
RightFoot  -1.77294 -1.42936 16.8214
RightToes  -9.31324e-010 0 -3.6325e-017
Spine  12.5978 -0.247426 -2.10869
Spine1  3.40862 0.325226 -3.47178
HEad  -13.251 -1.05911 -5.08257
LeftShoulder1  -0.429943 4.64325 -31.5693
LeftArm  2.37867 5.09735 -37.3498
LeftForeArm  22.4124 -29.0521 -5.06836
LeftHand  -0.0367783 4.89305 2.51782
RightShoulder  -0.911182 -5.98258 30.1631
RightArm  15.6925 -8.22074 41.6434
RightForeArm  17.9685 7.07687 7.46079
RightHand  -0.0291393 3.67623 -0.626472
LeftUpLeg  -2.04952 2.09304 -6.87114
LeftLeg  25.5708 -1.46648 -0.410396
LeftFoot  -15.9715 0.401111 7.54181
LeftToes  8.61288e-010 -5.99147e-011 2.1039e-011
789
root  -19.7669 38.9879 4.49359 -153.198 -84.9169 146.996
RightUpLeg  -18.1313 -9.60175 -6.67243
RightLeg  21.0258 0.703511 0.037357
RightFoot  -2.76575 -1.13475 14.8066
RightToes  -9.31324e-010 0 -3.6325e-017
Spine  11.8546 0.250075 -1.54999
Spine1  3.64434 0.838909 -3.45854
HEad  -11.0943 0.810962 -5.85494
LeftShoulder1  -0.505659 4.82899 -32.0129
LeftArm  3.27852 7.60985 -36.9982
LeftForeArm  19.9471 -26.4013 -4.58651
LeftHand  -0.0183883 6.39648 1.55419
RightShoulder  -0.845216 -5.83141 29.7042
RightArm  15.795 -5.3354 42.096
RightForeArm  19.2178 5.40965 7.69776
RightHand  -0.0683208 3.61136 -1.13085
LeftUpLeg  -2.74036 3.01881 -5.95654
LeftLeg  23.372 -2.15019 -0.669646
LeftFoot  -13.1322 0.198001 7.55104
LeftToes  8.61288e-010 -5.99147e-011 2.1039e-011
790
root  -18.7254 39.2305 4.50605 -158.945 -84.8027 152.882
RightUpLeg  -17.4413 -7.07413 -7.38813
RightLeg  28.8988 -0.698653 -0.620318
RightFoot  -3.65456 -0.875186 12.6188
RightToes  -9.31324e-010 0 -3.6325e-017
Spine  11.0666 0.637754 -0.748602
Spine1  3.31869 1.40221 -4.33241
HEad  -9.39151 3.29978 -6.55237
LeftShoulder1  -0.460104 4.72553 -31.5223
LeftArm  4.88069 10.714 -36.9257
LeftForeArm  17.4895 -23.2896 -4.19963
LeftHand  -0.0225127 6.49087 1.20392
RightShoulder  -0.82573 -5.78305 29.6092
RightArm  14.8055 -3.34352 42.6503
RightForeArm  20.8373 4.91251 7.37726
RightHand  -0.0050346 3.16393 -0.304234
LeftUpLeg  -3.55942 3.71768 -5.30235
LeftLeg  21.0881 -2.78755 -0.854187
LeftFoot  -10.3462 -0.00238361 7.36888
LeftToes  8.61288e-010 -5.99147e-011 2.1039e-011
791
root  -17.6971 39.3581 4.47456 -160.077 -84.7769 154.133
RightUpLeg  -16.037 -4.46794 -8.25096
RightLeg  36.1362 0.105825 -0.142354
RightFoot  -5.11586 -0.686661 11.9437
RightToes  -9.31324e-010 0 -3.6325e-017
Spine  10.1253 1.0896 -0.756868
Spine1  3.23119 1.82392 -4.68047
HEad  -7.95766 4.6057 -6.05764
LeftShoulder1  -0.468215 4.74247 -31.6573
LeftArm  5.16207 13.5699 -36.0728
LeftForeArm  18.6072 -20.61 -4.46001
LeftHand  -0.0420178 7.34783 0.0174686
RightShoulder  -0.83704 -5.84216 29.1825
RightArm  13.8684 -2.14614 43.1806
RightForeArm  19.6252 6.13526 7.02123
RightHand  -0.00399969 2.59142 -0.257425
LeftUpLeg  -4.54707 4.51737 -4.90306
LeftLeg  19.3278 -3.64414 -1.20425
LeftFoot  -7.94794 -0.165526 7.22313
LeftToes  8.61288e-010 -5.99147e-011 2.1039e-011
792
root  -16.6818 39.373 4.44755 -157.206 -84.9022 151.271
RightUpLeg  -13.9219 -2.69831 -9.1868
RightLeg  42.5596 1.52262 1.19725
RightFoot  -5.88635 -0.564756 10.9879
RightToes  -9.31324e-010 0 -3.6325e-017
Spine  9.17863 1.43208 -0.745685
Spine1  3.30227 2.19267 -5.331
HEad  -7.02594 5.06305 -4.60103
LeftShoulder1  -0.455742 4.71654 -31.4395
LeftArm  5.09215 16.6125 -34.9507
LeftForeArm  20.4639 -18.8939 -5.13698
LeftHand  -0.0835924 7.94151 -1.788
RightShoulder  -0.876775 -5.94276 29.3496
RightArm  13.2028 -1.37416 43.0839
RightForeArm  16.4018 8.6416 6.58517
RightHand  -0.0367028 3.34346 -0.735429
LeftUpLeg  -5.85946 4.77806 -4.88796
LeftLeg  18.4776 -4.14559 -1.50909
LeftFoot  -6.07828 -0.276429 6.79002
LeftToes  8.61288e-010 -5.99147e-011 2.1039e-011
